:SAMPLES-PER-SECOND 30
:FULLY-SPECIFIED
:DEGREES
61
root  34.84725051 36.56715934 -14.44903396 9.820512772 -4.664772511 3.154059887
lowerback  -9.097379684 -0.148015067 -0.6035109162
upperback  -3.612030029 0.33118999 -3.377880096
thorax  1.373360038 0.3240880072 -3.118089914
lowerneck  -13.03610039 -6.283500195 -4.633609772
upperneck  13.14220047 -8.593100548 6.959589481
head  6.65489006 -3.741709948 2.147340059
lclavicle  0 -4.497500157e-015 -2.743230041e-014
lhumerus  -48.0788002 31.26869965 62.43529892
lradius  1.114409883e-006 -6.507048965e-006 29.51729965
lwrist  3.192251654e-007 -3.790274832e-007 -29.02070045
lhand  -4.411182526e-031 -36.8227005 -10.74269962
lfingers  90 7.125020027 -90
lthumb  94.79417546 -25.58008613 100.9925763
rclavicle  0 -4.497500157e-015 -2.743230041e-014
rhumerus  -26.88920021 -18.41860008 -56.14450073
rradius  -5.16745672e-007 2.214343908e-008 97.27140045
rwrist  0.0006954420824 -0.004670973402 -175.5220032
rhand  -1.765616039e-031 0.4461149871 -8.024479866
rfingers  -90 -7.125020027 -90
rthumb  -86.14343456 -7.845599587 -63.7178454
rfemur  -12.18809891 15.38541698 12.74963665
rtibia  -0.2788427472 -1.018187523 19.13184357
rfoot  0.8240668774 -21.94971466 -35.78891373
rtoes  4.091099114 19.59389524 -102.0398227
lfemur  -7.361268044 -15.6221714 -20.48381615
ltibia  3.781292439 0.05440958962 12.34784412
lfoot  0.4580977559 -24.14121437 35.93603516
ltoes  -8.600494586 -18.12509759 -115.9277265
62
root  34.8459409 36.56827071 -14.44407185 9.836060524 -4.670993805 3.140853405
lowerback  -9.068579674 -0.1519889534 -0.7491531372
upperback  -3.630779982 0.3356440067 -3.324790001
thorax  1.337779999 0.3272899985 -2.980010033
lowerneck  -12.98859978 -6.318880081 -4.649370193
upperneck  13.11740017 -8.62928009 6.890520096
head  6.638269901 -3.768429756 2.12522006
lclavicle  0 -4.497500157e-015 -2.743230041e-014
lhumerus  -48.10210037 31.31399918 62.48849869
lradius  1.558274562e-006 -6.507048965e-006 29.50550079
lwrist  3.192251654e-007 -3.790274832e-007 -29.06999969
lhand  -0 -36.86009979 -10.71850014
lfingers  90 7.125020027 -90
lthumb  94.80658361 -25.55498506 101.0303104
rclavicle  0 -4.497500157e-015 -2.743230041e-014
rhumerus  -25.5 -18.18500137 -55.68529892
rradius  -5.16745672e-007 2.214343908e-008 97.71790314
rwrist  0.0006954420824 -0.004670973402 -176.0059967
rhand  -1.765649418e-031 0.5684530139 -8.159930229
rfingers  -90 -7.125020027 -90
rthumb  -86.18038276 -7.731828717 -63.60709143
rfemur  -12.17599201 15.34840584 12.75263596
rtibia  -0.2649740279 -1.037716627 19.08156204
rfoot  0.8541064858 -21.97589684 -35.73757172
rtoes  4.098838999 19.59233851 -102.0629035
lfemur  -7.350669861 -15.63913822 -20.48288155
ltibia  3.799491882 0.06702528894 12.34240055
lfoot  0.4932606518 -24.16947937 35.99714661
ltoes  -8.55152249 -18.14764464 -115.7704016
63
root  34.84418974 36.56876331 -14.43954077 9.836661339 -4.675586224 3.138870478
lowerback  -9.139950752 -0.1350970417 -0.6444035769
upperback  -3.611530066 0.3572860062 -3.410779953
thorax  1.398679972 0.3388400078 -3.12658
lowerneck  -12.93610001 -6.347720146 -4.528920174
upperneck  13.02670002 -8.685391426 6.875689983
head  6.597680092 -3.793250084 2.097470045
lclavicle  0 -4.497500157e-015 -2.743230041e-014
lhumerus  -48.02610016 31.28470039 62.41540146
lradius  -0.0001575529168 -6.507048965e-006 29.48719978
lwrist  3.192251654e-007 -3.790274832e-007 -29.14980125
lhand  -4.412895858e-031 -36.85240173 -10.75119972
lfingers  90 7.125020027 -90
lthumb  94.80989037 -25.58731236 101.025059
rclavicle  0 -4.497500157e-015 -2.743230041e-014
rhumerus  -24.00810051 -18.02400017 -55.38090134
rradius  -5.16745672e-007 2.214343908e-008 97.95410156
rwrist  0.0006954420824 -0.004670973402 -176.5839996
rhand  -1.765726548e-031 0.780978024 -8.086440086
rfingers  -90 -7.125020027 -90
rthumb  -86.10597484 -7.810948999 -63.39585669
rfemur  -12.14819431 15.34504986 12.7544241
rtibia  -0.2581702769 -1.056574583 19.03526688
rfoot  0.8709706664 -21.99752808 -35.73599625
rtoes  4.113641887 19.58935258 -102.1070516
lfemur  -7.318582058 -15.6561203 -20.50018883
ltibia  3.83233428 0.05766127631 12.32212925
lfoot  0.5180351138 -24.1452198 36.02843857
ltoes  -8.578738033 -18.13513428 -115.8578093
64
root  34.84287112 36.56058424 -14.43313088 9.832513809 -4.67709589 3.139211178
lowerback  -9.174679756 -0.1205189154 -0.6161618829
upperback  -3.620069981 0.3790290058 -3.444269896
thorax  1.410279989 0.3507809937 -3.17524004
lowerneck  -12.9059 -6.391670227 -4.514579773
upperneck  13.02130032 -8.749770164 6.888249874
head  6.594580173 -3.822560072 2.093230009
lclavicle  0 -4.497500157e-015 -2.743230041e-014
lhumerus  -47.99409866 31.23679924 62.40639877
lradius  -0.0003696084605 -6.507048965e-006 29.46579933
lwrist  3.192251654e-007 -3.790274832e-007 -29.18090057
lhand  -4.412849614e-031 -36.85160065 -10.81070042
lfingers  90 7.125020027 -90
lthumb  94.82212964 -25.64578068 101.0296317
rclavicle  0 -4.497500157e-015 -2.743230041e-014
rhumerus  -22.53829956 -17.8988018 -54.98289871
rradius  -5.16745672e-007 2.214343908e-008 98.26000214
rwrist  0.0006954420824 -0.004670973402 -176.4859924
rhand  -1.765779766e-031 0.8987749815 -7.985960007
rfingers  -90 -7.125020027 -90
rthumb  -86.03725488 -7.908136536 -63.27498107
rfemur  -12.11690331 15.31740952 12.7447052
rtibia  -0.2468187213 -1.09451437 18.99490356
rfoot  0.8726615906 -22.07229996 -35.7374382
rtoes  4.143878705 19.58321831 -102.1972499
lfemur  -7.21121788 -15.65624619 -20.54660988
ltibia  3.918962955 0.06568400562 12.18751144
lfoot  0.5324057341 -24.10151863 36.06393051
ltoes  -8.616026495 -18.117913 -115.977663
65
root  34.84191895 36.55988138 -14.42776627 9.832019806 -4.671266079 3.140334368
lowerback  -9.215411186 -0.1187970638 -0.6613083482
upperback  -3.621220112 0.3884739876 -3.449609995
thorax  1.431890011 0.3567320108 -3.154289961
lowerneck  -12.85249996 -6.437290192 -4.514200211
upperneck  12.97249985 -8.810779572 6.885630131
head  6.573309898 -3.854510069 2.087640047
lclavicle  0 -4.497500157e-015 -2.743230041e-014
lhumerus  -47.96889877 31.23559952 62.41159821
lradius  -0.0006351498887 -6.507048965e-006 29.45420074
lwrist  3.192251654e-007 -3.790274832e-007 -29.16040039
lhand  -4.413230632e-031 -36.85820007 -10.81849957
lfingers  90 7.125020027 -90
lthumb  94.82693507 -25.65318713 101.0375053
rclavicle  0 -4.497500157e-015 -2.743230041e-014
rhumerus  -21.03560066 -17.85420227 -54.77190018
rradius  -5.16745672e-007 2.214343908e-008 98.47460175
rwrist  0.0006954420824 -0.004670973402 -176.6089935
rhand  -1.765728154e-031 0.784792006 -8.021730423
rfingers  -90 -7.125020027 -90
rthumb  -86.07594373 -7.869080911 -63.38810308
rfemur  -12.10241508 15.30147648 12.76402664
rtibia  -0.247189939 -1.10227108 18.98876762
rfoot  0.8785848618 -22.09709549 -35.7207489
rtoes  4.168925182 19.57810131 -102.2719857
lfemur  -7.17646265 -15.67199612 -20.55957985
ltibia  3.948580503 0.05634305254 12.14231777
lfoot  0.5173852444 -24.05589294 36.03421021
ltoes  -8.610946678 -18.12026455 -115.9613288
66
root  34.84072648 36.56737861 -14.42240017 9.852371216 -4.656613827 3.139961004
lowerback  -9.229450226 -0.113581039 -0.6801956892
upperback  -3.610589981 0.3975459933 -3.452179909
thorax  1.451030016 0.3613820076 -3.145309925
lowerneck  -12.82839966 -6.480259895 -4.539659977
upperneck  12.92310047 -8.866140366 6.904069901
head  6.558740139 -3.882820129 2.09262991
lclavicle  0 -4.497500157e-015 -2.743230041e-014
lhumerus  -47.95389938 31.31410027 62.39039993
lradius  -0.0009547187365 -6.507048965e-006 29.44280052
lwrist  3.192251654e-007 -3.790274832e-007 -29.1704998
lhand  -0 -36.86589813 -10.80770016
lfingers  90 7.125020027 -90
lthumb  94.82822596 -25.64226209 101.0446758
rclavicle  0 -4.497500157e-015 -2.743230041e-014
rhumerus  -19.4897995 -17.72989845 -54.36970139
rradius  -5.16745672e-007 2.214343908e-008 98.56279755
rwrist  0.0006954420824 -0.004670973402 -176.8410034
rhand  -1.765813425e-031 0.9658859968 -8.196749687
rfingers  -90 -7.125020027 -90
rthumb  -86.11983146 -7.724166802 -63.22275688
rfemur  -12.0995779 15.4099884 12.76581001
rtibia  -0.2396112531 -1.042785764 18.97101021
rfoot  0.8991616964 -21.96166039 -35.77149582
rtoes  4.169776629 19.57792679 -102.2745266
lfemur  -7.173877716 -15.64935303 -20.56369019
ltibia  3.967510223 0.06790811568 12.10588264
lfoot  0.5021500587 -24.05683136 35.98180008
ltoes  -8.602015632 -18.12439471 -115.932616
67
root  34.84043512 36.5735452 -14.41783454 9.897307396 -4.6598382 3.135835648
lowerback  -9.224980354 -0.1006060243 -0.6692451239
upperback  -3.588840008 0.4128400087 -3.463160038
thorax  1.471969962 0.3683150113 -3.161309958
lowerneck  -12.81070042 -6.523310184 -4.601749897
upperneck  12.8664999 -8.918720245 6.950679779
head  6.545859814 -3.909410238 2.112540007
lclavicle  0 -4.497500157e-015 -2.743230041e-014
lhumerus  -47.90510178 31.30459976 62.42620087
lradius  -0.001328856568 -6.507048965e-006 29.43659973
lwrist  3.192251654e-007 -3.790274832e-007 -29.10899925
lhand  -4.41407394e-031 -36.87279892 -10.85480022
lfingers  90 7.125020027 -90
lthumb  94.84152547 -25.68831899 101.0564351
rclavicle  0 -4.497500157e-015 -2.743230041e-014
rhumerus  -17.90749931 -17.77269936 -54.00279999
rradius  -5.16745672e-007 2.214343908e-008 98.56719971
rwrist  0.0006954420824 -0.004670973402 -176.7429962
rhand  -1.765919917e-031 1.152750015 -8.096119881
rfingers  -90 -7.125020027 -90
rthumb  -86.03717538 -7.825939609 -63.03483264
rfemur  -12.16688251 15.44249725 12.76638508
rtibia  -0.240576759 -1.010358334 19.0161953
rfoot  0.9189173579 -21.90433502 -35.69682693
rtoes  4.170024923 19.57787589 -102.2752676
lfemur  -7.210447788 -15.66175175 -20.556633
ltibia  3.958405495 0.06032271683 12.08370876
lfoot  0.4682284892 -24.008564 35.96063995
ltoes  -8.569668633 -18.13930878 -115.8286748
